<svg width="143" height="143" viewBox="0 0 143 143" fill="none" xmlns="http://www.w3.org/2000/svg">
<path d="M65.722 133.253C66.591 133.335 67.3224 133.598 67.9163 134.042C68.5058 134.489 68.938 135.075 69.2128 135.8C69.4833 136.529 69.5747 137.355 69.487 138.279C69.3993 139.203 69.1536 140.001 68.7501 140.674C68.3423 141.35 67.8162 141.857 67.1719 142.195C66.5233 142.536 65.7919 142.668 64.9776 142.591C64.5079 142.546 64.0514 142.424 63.6083 142.224C63.1652 142.024 62.7724 141.73 62.43 141.342C62.0873 140.958 61.8317 140.467 61.6632 139.871C61.4947 139.274 61.4504 138.555 61.5303 137.713L61.586 137.126L68.5384 137.786L68.4247 138.984L62.8816 138.458C62.8333 138.967 62.8919 139.43 63.0576 139.849C63.2193 140.267 63.4752 140.609 63.8251 140.876C64.1712 141.142 64.5948 141.298 65.0958 141.346C65.6478 141.398 66.1384 141.307 66.5676 141.071C66.9925 140.839 67.3333 140.516 67.5898 140.102C67.8464 139.687 67.9983 139.232 68.0455 138.735L68.1213 137.936C68.1859 137.255 68.1233 136.666 67.9334 136.17C67.7392 135.678 67.4424 135.288 67.0431 135.002C66.6433 134.719 66.1636 134.551 65.6038 134.498C65.2397 134.463 64.9061 134.483 64.6028 134.557C64.2953 134.634 64.024 134.766 63.789 134.953C63.5536 135.144 63.3623 135.391 63.2152 135.693L61.912 135.19C62.0961 134.749 62.3708 134.372 62.7363 134.06C63.1013 133.751 63.5376 133.523 64.0452 133.378C64.5524 133.237 65.1113 133.195 65.722 133.253Z" fill="#7D7D7D"/>
<path d="M46.9897 138.474L52.8587 130.802L54.2115 131.219L54.7461 140.863L53.303 140.419L53.0384 132.783L52.9482 132.755L48.4327 138.918L46.9897 138.474Z" fill="#7D7D7D"/>
<path d="M41.987 125.904C42.7518 126.325 43.3187 126.857 43.6876 127.5C44.0512 128.144 44.2151 128.854 44.1793 129.628C44.1381 130.405 43.8939 131.199 43.4466 132.012C42.9992 132.825 42.4568 133.46 41.8193 133.918C41.1765 134.376 40.4923 134.633 39.7669 134.687C39.0361 134.742 38.3124 134.573 37.5958 134.179C37.1824 133.951 36.812 133.658 36.4848 133.298C36.1575 132.939 35.9138 132.513 35.7537 132.021C35.5916 131.532 35.5518 130.981 35.634 130.366C35.7163 129.752 35.9612 129.074 36.3688 128.333L36.6531 127.817L42.7717 131.183L42.1917 132.237L37.3133 129.553C37.0669 130.001 36.9366 130.45 36.9224 130.9C36.9047 131.348 37.0036 131.764 37.2191 132.147C37.4311 132.529 37.7576 132.841 38.1986 133.083C38.6844 133.351 39.171 133.461 39.6585 133.415C40.1407 133.371 40.5818 133.21 40.9817 132.932C41.3816 132.653 41.7019 132.296 41.9426 131.858L42.3293 131.155C42.6592 130.556 42.8354 129.991 42.858 129.46C42.8754 128.931 42.7577 128.456 42.505 128.034C42.2505 127.616 41.8769 127.271 41.3842 127C41.0638 126.824 40.7498 126.709 40.4421 126.657C40.1291 126.605 39.8276 126.619 39.5377 126.697C39.2458 126.779 38.9724 126.929 38.7174 127.148L37.7211 126.169C38.065 125.838 38.4668 125.601 38.9265 125.459C39.3842 125.32 39.8749 125.285 40.3984 125.353C40.92 125.425 41.4496 125.609 41.987 125.904Z" fill="#7D7D7D"/>
<path d="M34.2444 121.11L28.5038 128.119L27.4634 127.267L28.3304 126.208L28.2574 126.148C27.8456 126.391 27.3839 126.483 26.8724 126.425C26.3609 126.366 25.8952 126.165 25.4754 125.822C25.3963 125.757 25.2987 125.674 25.1825 125.574C25.0664 125.474 24.9804 125.396 24.9245 125.34L25.8215 124.245C25.8505 124.284 25.923 124.366 26.0388 124.491C26.1491 124.617 26.2758 124.739 26.4188 124.856C26.7595 125.135 27.1223 125.313 27.5071 125.389C27.8863 125.466 28.2557 125.443 28.6152 125.321C28.9691 125.199 29.2756 124.98 29.5347 124.663L33.1675 120.228L34.2444 121.11Z" fill="#7D7D7D"/>
<path d="M29.0506 111.847C29.2038 112.026 29.3254 112.199 29.4155 112.365C29.5086 112.528 29.5646 112.649 29.5837 112.725L28.4208 113.253C28.267 112.939 28.0969 112.692 27.9105 112.51C27.724 112.327 27.4865 112.228 27.1978 112.211C26.9095 112.188 26.5355 112.261 26.0758 112.432L25.369 112.694L20.6172 121.154L19.6369 120.006L23.5045 113.417L23.4432 113.345L16.3284 116.13L15.3481 114.981L25.7406 111.167C26.2089 110.994 26.6426 110.906 27.0418 110.901C27.444 110.894 27.8117 110.97 28.1449 111.131C28.4756 111.288 28.7775 111.527 29.0506 111.847Z" fill="#7D7D7D"/>
<path d="M11.918 103.434L13.0453 102.791L15.6625 107.383L14.5352 108.025L11.918 103.434Z" fill="#7D7D7D"/>
<path d="M13.6201 92.0793C13.857 92.7961 13.885 93.4888 13.7042 94.1573C13.5197 94.8271 13.1463 95.4267 12.5842 95.9562C12.0182 96.487 11.2798 96.9028 10.3688 97.2039C9.46521 97.5024 8.62994 97.6066 7.86295 97.5163C7.09596 97.426 6.44008 97.1644 5.89532 96.7315C5.35056 96.2986 4.95851 95.72 4.71916 94.9957C4.5341 94.4356 4.48124 93.9623 4.56059 93.5758C4.63497 93.1868 4.76139 92.8675 4.93986 92.6181C5.11336 92.3661 5.25874 92.1669 5.37601 92.0205L5.339 91.9085L1.10503 93.3075L0.668284 91.9858L12.1381 88.1957L12.56 89.4727L11.2383 89.9094L11.2901 90.0662C11.479 90.1115 11.7225 90.1842 12.0207 90.2845C12.3152 90.386 12.6106 90.572 12.9071 90.8426C13.1999 91.1145 13.4375 91.5267 13.6201 92.0793ZM12.3736 92.2924C12.1984 91.7622 11.9122 91.3598 11.515 91.0852C11.1141 90.8118 10.6357 90.6614 10.08 90.6338C9.52048 90.6075 8.9159 90.7017 8.26625 90.9163C7.62406 91.1285 7.09299 91.4076 6.67303 91.7534C6.24935 92.1005 5.96354 92.5014 5.81563 92.9561C5.66398 93.4121 5.67698 93.9089 5.85464 94.4465C6.03971 95.0066 6.33767 95.4258 6.74854 95.7041C7.15444 95.98 7.63279 96.1305 8.18358 96.1555C8.72941 96.1781 9.30475 96.0894 9.9096 95.8896C10.5219 95.6872 11.0474 95.4101 11.486 95.0581C11.9197 94.7035 12.2229 94.2927 12.3957 93.8256C12.5636 93.356 12.5562 92.845 12.3736 92.2924Z" fill="#7D7D7D"/>
<path d="M10.7978 79.6908C10.8577 80.2618 10.8045 80.7912 10.6382 81.2792C10.468 81.7675 10.1919 82.1701 9.81 82.4869C9.42417 82.8042 8.93795 82.9935 8.35134 83.0551C7.83512 83.1092 7.406 83.0514 7.06399 82.8817C6.71807 82.7124 6.43536 82.4672 6.21587 82.1463C5.99638 81.8253 5.82013 81.4642 5.68711 81.063C5.54978 80.6583 5.43179 80.2496 5.33315 79.8369C5.20534 79.2968 5.10599 78.8585 5.03511 78.5219C4.95991 78.1819 4.86913 77.9384 4.76277 77.7914C4.65601 77.6405 4.49117 77.5767 4.26826 77.6001L4.22133 77.605C3.64253 77.6657 3.20941 77.8713 2.92195 78.2217C2.63408 78.5682 2.52357 79.0601 2.59043 79.6976C2.65974 80.3585 2.85879 80.8615 3.18756 81.2066C3.51633 81.5517 3.85297 81.7832 4.19747 81.9013L3.86599 83.2645C3.29388 83.0873 2.83479 82.8192 2.48873 82.4601C2.13836 82.0975 1.87815 81.6899 1.7081 81.2372C1.53374 80.781 1.42277 80.3261 1.37519 79.8725C1.34484 79.5831 1.34517 79.247 1.37619 78.8642C1.40289 78.4778 1.50337 78.0976 1.67764 77.7235C1.85149 77.3455 2.13925 77.0168 2.54092 76.7374C2.94258 76.4581 3.50125 76.2809 4.21692 76.2058L10.1535 75.5832L10.2987 76.9676L9.0785 77.0956L9.08588 77.166C9.29126 77.2393 9.5169 77.3738 9.76278 77.5694C10.0087 77.7651 10.2289 78.0365 10.4235 78.3838C10.618 78.7311 10.7428 79.1668 10.7978 79.6908ZM9.532 79.6101C9.47458 79.0626 9.31863 78.6124 9.06417 78.2595C8.80929 77.9027 8.50168 77.6463 8.14135 77.4904C7.7806 77.3305 7.41251 77.2703 7.03708 77.3097L5.76999 77.4426C5.84654 77.4939 5.9246 77.6161 6.00418 77.8094C6.07944 77.9992 6.15211 78.2209 6.2222 78.4745C6.28797 78.7246 6.34921 78.9693 6.40593 79.2085C6.45832 79.4441 6.50209 79.6353 6.53723 79.7818C6.6219 80.1367 6.73343 80.465 6.87183 80.7668C7.00591 81.0651 7.18664 81.2992 7.41401 81.4691C7.63706 81.6355 7.92456 81.7002 8.27653 81.6633C8.75756 81.6128 9.1026 81.3967 9.31165 81.015C9.51638 80.6298 9.58983 80.1615 9.532 79.6101Z" fill="#7D7D7D"/>
<path d="M4.81786 67.5627L10.2379 68.1334L10.0922 69.5178L1.08216 68.569L1.22299 67.2316L2.63081 67.3798L2.64316 67.2625C2.20786 67.0031 1.87403 66.6438 1.64167 66.1844C1.40541 65.7246 1.3231 65.1544 1.39475 64.474C1.45899 63.8639 1.64034 63.3433 1.93879 62.9121C2.23334 62.4805 2.64623 62.1642 3.17746 61.9631C3.70479 61.7616 4.35169 61.7013 5.11816 61.782L10.8433 62.3848L10.6975 63.7692L5.06624 63.1762C4.35843 63.1017 3.78768 63.2274 3.354 63.5534C2.91641 63.879 2.66385 64.3625 2.59632 65.0038C2.54978 65.4457 2.604 65.8508 2.75897 66.219C2.91436 66.5833 3.16534 66.8845 3.51194 67.1227C3.85853 67.3608 4.29384 67.5075 4.81786 67.5627Z" fill="#7D7D7D"/>
<path d="M16.5387 54.4493C16.3275 55.0876 16.0637 55.6092 15.7475 56.014C15.4351 56.4201 15.0957 56.7323 14.7293 56.9507C14.3679 57.1667 14.0083 57.3148 13.6503 57.3952L13.2595 56.0978C13.4558 56.0302 13.6851 55.9383 13.9472 55.8221C14.213 55.7071 14.4731 55.5157 14.7275 55.2478C14.9867 54.9774 15.2022 54.5827 15.374 54.0638C15.6037 53.3695 15.6253 52.7408 15.4388 52.178C15.2523 51.6151 14.8007 51.215 14.0839 50.9779L12.3368 50.3997L12.2998 50.5117C12.4244 50.6607 12.5728 50.863 12.745 51.1188C12.9147 51.3696 13.0341 51.6908 13.1034 52.0824C13.1701 52.4689 13.1109 52.9422 12.9256 53.5022C12.6958 54.1965 12.3252 54.7656 11.8139 55.2094C11.3038 55.6495 10.682 55.9263 9.94863 56.0398C9.21646 56.1496 8.4024 56.0562 7.50645 55.7598C6.62543 55.4682 5.90953 55.0594 5.35876 54.5334C4.80426 54.0062 4.43923 53.407 4.26367 52.7359C4.08438 52.0636 4.11456 51.3653 4.35421 50.641C4.53951 50.0811 4.77984 49.6677 5.0752 49.401C5.36807 49.1292 5.66112 48.9446 5.95437 48.8469C6.24512 48.7443 6.48122 48.6692 6.66266 48.6216L6.70713 48.4872L5.3408 48.035L5.76328 46.7583L14.6108 49.686C15.35 49.9306 15.8954 50.2974 16.2472 50.7866C16.6039 51.2733 16.7972 51.8343 16.8272 52.4696C16.8622 53.1025 16.766 53.7624 16.5387 54.4493ZM11.7977 52.9302C11.9731 52.4 12 51.9119 11.8784 51.4658C11.7568 51.0196 11.4998 50.626 11.1074 50.2849C10.7149 49.9438 10.2014 49.6683 9.56677 49.4583C8.94707 49.2532 8.36928 49.1656 7.83341 49.1953C7.29753 49.2251 6.83467 49.3785 6.44483 49.6554C6.05498 49.9323 5.77112 50.3395 5.59323 50.8771C5.40794 51.437 5.39538 51.9506 5.55557 52.4178C5.717 52.8813 6.00575 53.2854 6.42182 53.6302C6.83913 53.9712 7.33898 54.2381 7.92134 54.4308C8.51865 54.6285 9.07777 54.7099 9.59871 54.6752C10.1172 54.6355 10.5682 54.4741 10.9518 54.191C11.3329 53.903 11.6149 53.4827 11.7977 52.9302Z" fill="#7D7D7D"/>
<path d="M23.6451 34.1306C23.1028 34.8147 22.484 35.285 21.7887 35.5417C21.0928 35.7929 20.3659 35.8363 19.6079 35.672C18.8494 35.5022 18.1065 35.129 17.3793 34.5525C16.6521 33.976 16.1162 33.3354 15.7716 32.6307C15.4264 31.9204 15.2875 31.2032 15.355 30.4788C15.4218 29.749 15.7092 29.0636 16.2173 28.4226C16.5105 28.0529 16.8616 27.7366 17.2706 27.4738C17.6797 27.211 18.1402 27.0416 18.652 26.9657C19.1608 26.8873 19.7112 26.9398 20.3034 27.1232C20.8956 27.3067 21.523 27.6611 22.1855 28.1863L22.6477 28.5527L18.3092 34.0252L17.3663 33.2777L20.8254 28.9145C20.4248 28.5969 20.0038 28.3936 19.5625 28.3047C19.1236 28.2127 18.6972 28.241 18.2834 28.3896C17.8719 28.5351 17.5099 28.8051 17.1972 29.1995C16.8528 29.6339 16.6626 30.0954 16.6267 30.5837C16.5901 31.0666 16.6757 31.5283 16.8833 31.969C17.091 32.4096 17.3905 32.785 17.7818 33.0953L18.4104 33.5936C18.9466 34.0187 19.4744 34.2866 19.9938 34.3973C20.5126 34.5025 21.0009 34.4656 21.4589 34.2867C21.9138 34.1054 22.3159 33.7944 22.6652 33.3538C22.8924 33.0672 23.0575 32.7766 23.1606 32.482C23.2631 32.1819 23.2998 31.8823 23.2709 31.5834C23.2388 31.282 23.1362 30.9873 22.963 30.6995L24.0943 29.8802C24.3637 30.2745 24.5303 30.7101 24.5938 31.1869C24.6542 31.6614 24.6072 32.151 24.4529 32.6559C24.2954 33.1583 24.0262 33.6499 23.6451 34.1306Z" fill="#7D7D7D"/>
<path d="M29.4651 15.5758L32.7055 24.6755L31.6195 25.5834L23.2383 20.7812L24.3968 19.8128L30.946 23.7478L31.0184 23.6873L28.3067 16.5442L29.4651 15.5758Z" fill="#7D7D7D"/>
<path d="M42.7317 18.2225C41.9623 18.635 41.2076 18.821 40.4676 18.7805C39.7291 18.7346 39.0447 18.4858 38.4144 18.0341C37.7856 17.577 37.252 16.9395 36.8135 16.1216C36.375 15.3037 36.1376 14.503 36.1012 13.7194C36.0664 12.9305 36.2238 12.217 36.5733 11.579C36.9244 10.9357 37.4604 10.4208 38.1813 10.0343C38.5971 9.81139 39.045 9.66053 39.5248 9.58178C40.0046 9.50302 40.4944 9.53042 40.9943 9.66396C41.4924 9.79403 41.9767 10.0608 42.4474 10.4644C42.9181 10.8679 43.3531 11.4422 43.7526 12.1873L44.0313 12.7072L37.8764 16.0069L37.3078 14.9464L42.2151 12.3156C41.9736 11.865 41.668 11.5113 41.2982 11.2545C40.932 10.9957 40.5294 10.8524 40.0906 10.8244C39.6552 10.7946 39.2157 10.8986 38.7721 11.1364C38.2835 11.3984 37.9257 11.7463 37.6988 12.1803C37.4735 12.6089 37.3686 13.0667 37.3843 13.5536C37.3999 14.0404 37.5257 14.5039 37.7616 14.9441L38.1407 15.651C38.464 16.254 38.842 16.7095 39.2747 17.0173C39.7091 17.3199 40.1719 17.48 40.6632 17.4977C41.1527 17.5119 41.6453 17.3861 42.1408 17.1204C42.4631 16.9477 42.7301 16.7465 42.9417 16.5171C43.1549 16.2823 43.3076 16.022 43.3997 15.7361C43.49 15.4468 43.5128 15.1356 43.4682 14.8027L44.8318 14.4999C44.9225 14.9688 44.9024 15.4347 44.7713 15.8976C44.6383 16.3571 44.4008 16.7878 44.0586 17.1899C43.7146 17.5885 43.2723 17.9327 42.7317 18.2225Z" fill="#7D7D7D"/>
<path d="M50.969 14.3382L48.2149 5.70713L49.4961 5.29831L49.9121 6.60196L50.002 6.57327C50.023 6.09601 50.1972 5.65864 50.5244 5.26118C50.8516 4.86371 51.2737 4.5825 51.7906 4.41754C51.888 4.38646 52.0104 4.34948 52.1577 4.30661C52.305 4.26374 52.4173 4.23409 52.4946 4.21768L52.9249 5.56628C52.8764 5.56939 52.768 5.5854 52.5997 5.61432C52.434 5.63831 52.2631 5.67839 52.0871 5.73457C51.6675 5.86845 51.321 6.07602 51.0475 6.35728C50.7766 6.6336 50.5946 6.95584 50.5016 7.32398C50.4111 7.68719 50.428 8.06359 50.5523 8.45318L52.2952 13.915L50.969 14.3382Z" fill="#7D7D7D"/>
<path d="M61.566 15.0241C61.3321 15.0549 61.121 15.0629 60.9326 15.048C60.7447 15.0371 60.6134 15.0187 60.5386 14.9928L60.7294 13.7303C61.076 13.7719 61.3764 13.7641 61.6306 13.7068C61.8848 13.6496 62.0977 13.5045 62.2694 13.2717C62.4454 13.0423 62.5872 12.6885 62.6948 12.2103L62.8598 11.4747L58.3496 2.88281L59.8467 2.68575L63.2684 9.51716L63.3619 9.50484L64.8992 2.02065L66.3963 1.82359L63.9383 12.6178C63.8278 13.1043 63.6659 13.5162 63.4525 13.8537C63.2397 14.195 62.9753 14.4618 62.6596 14.6541C62.3477 14.8459 61.9832 14.9692 61.566 15.0241Z" fill="#7D7D7D"/>
<path d="M77.95 5.23191L77.8753 6.52739L72.5991 6.22321L72.6738 4.92773L77.95 5.23191Z" fill="#7D7D7D"/>
<path d="M86.5484 12.8428C85.8182 12.6512 85.2218 12.2977 84.7595 11.782C84.2982 11.2626 83.9984 10.623 83.8603 9.86318C83.7232 9.09953 83.7764 8.25368 84.0198 7.32562C84.2613 6.40516 84.6286 5.64782 85.1219 5.0536C85.6152 4.45938 86.1917 4.05163 86.8514 3.83034C87.5111 3.60906 88.2099 3.5952 88.9478 3.78875C89.5183 3.93841 89.9441 4.15172 90.2251 4.4287C90.5109 4.70287 90.7099 4.98271 90.822 5.26823C90.9389 5.55094 91.0269 5.78134 91.0859 5.95942L91.2 5.98935L92.3314 1.67614L93.6778 2.02933L90.6129 13.7138L89.3121 13.3726L89.6652 12.0261L89.5055 11.9842C89.3647 12.118 89.1711 12.2827 88.9247 12.4782C88.6792 12.67 88.3623 12.8165 87.9739 12.9179C87.5865 13.0155 87.1114 12.9905 86.5484 12.8428ZM87.0483 11.6812C87.5884 11.8228 88.0817 11.8018 88.5283 11.6181C88.9759 11.4306 89.3625 11.1113 89.6882 10.6601C90.0148 10.2051 90.265 9.64674 90.4386 8.98492C90.6102 8.33071 90.6653 7.73334 90.6038 7.19279C90.5433 6.64845 90.3626 6.19046 90.0617 5.81883C89.7618 5.4434 89.338 5.18385 88.7903 5.04018C88.2197 4.89052 87.7059 4.91225 87.2487 5.10535C86.7963 5.29565 86.4097 5.61498 86.0888 6.06336C85.7728 6.50894 85.5339 7.03981 85.3723 7.65598C85.2086 8.27976 85.1551 8.87143 85.2116 9.43099C85.2729 9.98774 85.4524 10.4657 85.7501 10.865C86.0526 11.2614 86.4854 11.5335 87.0483 11.6812Z" fill="#7D7D7D"/>
<path d="M98.4758 17.2191C97.9643 16.9585 97.5491 16.6257 97.2303 16.2206C96.9133 15.8119 96.7259 15.3612 96.6681 14.8684C96.612 14.372 96.7179 13.8611 96.9856 13.3355C97.2212 12.873 97.5033 12.5445 97.8319 12.35C98.1622 12.152 98.5218 12.0484 98.9105 12.039C99.2992 12.0296 99.698 12.0783 100.107 12.1851C100.521 12.2903 100.928 12.4138 101.328 12.5557C101.851 12.7426 102.273 12.8979 102.593 13.0216C102.92 13.1437 103.173 13.2001 103.355 13.1909C103.539 13.1835 103.683 13.0799 103.784 12.8802L103.806 12.8382C104.07 12.3196 104.133 11.8444 103.996 11.4125C103.862 10.9824 103.509 10.6219 102.938 10.3309C102.346 10.0293 101.816 9.9224 101.347 10.0103C100.879 10.0982 100.501 10.2545 100.215 10.4792L99.2517 9.45905C99.7119 9.07562 100.187 8.83651 100.676 8.74172C101.171 8.6452 101.655 8.64884 102.127 8.75264C102.605 8.85472 103.047 9.00928 103.453 9.21634C103.712 9.34843 103.994 9.53168 104.298 9.76611C104.608 9.99881 104.872 10.2901 105.091 10.6399C105.313 10.9916 105.433 11.4119 105.448 11.9009C105.464 12.3899 105.308 12.955 104.982 13.5962L102.272 18.9149L101.032 18.283L101.589 17.1898L101.526 17.1577C101.352 17.29 101.117 17.4061 100.819 17.5058C100.521 17.6056 100.173 17.6425 99.7759 17.6167C99.3787 17.5908 98.9453 17.4583 98.4758 17.2191ZM99.2326 16.2013C99.7232 16.4512 100.186 16.5655 100.62 16.5442C101.058 16.5246 101.441 16.4061 101.768 16.1888C102.098 15.9732 102.349 15.6972 102.52 15.3609L103.099 14.2257C103.014 14.2619 102.869 14.2609 102.664 14.2224C102.463 14.1822 102.238 14.1224 101.987 14.0432C101.741 13.9622 101.503 13.8804 101.271 13.7977C101.045 13.7134 100.861 13.6461 100.719 13.5957C100.375 13.4736 100.039 13.3884 99.7105 13.3402C99.3873 13.2903 99.0926 13.3144 98.8263 13.4127C98.5653 13.5092 98.3545 13.7151 98.1938 14.0305C97.9743 14.4614 97.9677 14.8685 98.1741 15.2516C98.3858 15.6331 98.7386 15.9497 99.2326 16.2013Z" fill="#7D7D7D"/>
<path d="M111.904 18.8063L108.475 23.0421L107.393 22.1662L113.094 15.1249L114.139 15.9711L113.248 17.0713L113.34 17.1456C113.794 16.9216 114.278 16.8372 114.789 16.8924C115.304 16.9445 115.827 17.1859 116.359 17.6164C116.835 18.0024 117.173 18.438 117.373 18.9231C117.574 19.4051 117.615 19.9236 117.494 20.4787C117.376 21.0307 117.075 21.6062 116.59 22.2052L112.967 26.6794L111.885 25.8035L115.448 21.4027C115.896 20.8495 116.102 20.3023 116.064 19.761C116.029 19.2167 115.761 18.7417 115.26 18.3359C114.915 18.0563 114.545 17.8813 114.152 17.8108C113.762 17.7428 113.373 17.7893 112.984 17.9504C112.596 18.1115 112.236 18.3968 111.904 18.8063Z" fill="#7D7D7D"/>
<path d="M116.524 35.7763C116.103 35.2516 115.809 34.7464 115.642 34.2608C115.471 33.7776 115.394 33.3229 115.41 32.8967C115.426 32.476 115.497 32.0937 115.625 31.7497L116.926 32.1281C116.876 32.3296 116.828 32.5719 116.783 32.855C116.735 33.1406 116.754 33.463 116.84 33.8222C116.925 34.1869 117.139 34.5825 117.481 35.0091C117.938 35.5798 118.454 35.9402 119.028 36.0902C119.601 36.2402 120.183 36.0791 120.772 35.607L122.208 34.4562L122.134 34.3641C121.941 34.3876 121.691 34.402 121.383 34.4071C121.08 34.4129 120.745 34.3382 120.379 34.1832C120.019 34.0287 119.654 33.7213 119.285 33.2611C118.828 32.6903 118.552 32.0697 118.458 31.3992C118.367 30.7317 118.473 30.0595 118.777 29.3825C119.084 28.7085 119.605 28.0765 120.341 27.4863C121.066 26.906 121.798 26.5281 122.539 26.3524C123.284 26.1743 123.985 26.1943 124.643 26.4124C125.305 26.6281 125.874 27.0335 126.351 27.6288C126.72 28.0891 126.936 28.5157 126.999 28.9087C127.067 29.3023 127.063 29.6486 126.985 29.9478C126.913 30.2475 126.847 30.4865 126.789 30.6646L126.877 30.7751L128 29.8751L128.841 30.9245L121.569 36.7523C120.961 37.2391 120.356 37.4969 119.755 37.5257C119.152 37.5599 118.576 37.4167 118.027 37.096C117.477 36.7808 116.976 36.3409 116.524 35.7763ZM120.379 32.6264C120.728 33.0621 121.123 33.3505 121.563 33.4913C122.004 33.6322 122.474 33.6309 122.974 33.4874C123.473 33.3439 123.984 33.0632 124.506 32.6451C125.015 32.2369 125.403 31.8 125.67 31.3343C125.937 30.8686 126.06 30.3968 126.04 29.9191C126.02 29.4413 125.833 28.9815 125.479 28.5396C125.11 28.0794 124.686 27.7892 124.207 27.6693C123.73 27.5524 123.234 27.5746 122.718 27.7359C122.205 27.9003 121.709 28.1743 121.23 28.5579C120.739 28.9513 120.367 29.3759 120.112 29.8318C119.863 30.2883 119.753 30.7545 119.782 31.2304C119.816 31.7069 120.015 32.1723 120.379 32.6264Z" fill="#7D7D7D"/>
<path d="M129.699 52.798C129.421 51.9707 129.363 51.1956 129.526 50.4726C129.694 49.7521 130.054 49.1187 130.604 48.5724C131.16 48.0286 131.877 47.6086 132.757 47.3124C133.636 47.0163 134.465 46.9155 135.244 47.0102C136.028 47.1072 136.705 47.3812 137.276 47.8321C137.852 48.2855 138.27 48.8997 138.531 49.6749C138.682 50.1221 138.756 50.5888 138.754 51.075C138.751 51.5612 138.643 52.0396 138.428 52.5103C138.217 52.9798 137.873 53.4129 137.397 53.8098C136.92 54.2067 136.281 54.54 135.48 54.8098L134.921 54.998L132.693 48.3795L133.833 47.9956L135.61 53.2725C136.094 53.1093 136.494 52.8669 136.809 52.5451C137.125 52.2271 137.333 51.854 137.434 51.4259C137.536 51.0016 137.507 50.5509 137.346 50.0739C137.169 49.5485 136.886 49.1377 136.495 48.8417C136.11 48.5482 135.676 48.3686 135.194 48.3029C134.711 48.2372 134.233 48.2841 133.76 48.4434L133 48.6994C132.351 48.9178 131.839 49.2147 131.463 49.5901C131.093 49.968 130.858 50.3977 130.759 50.8792C130.663 51.3595 130.705 51.8661 130.884 52.399C131.001 52.7456 131.155 53.0423 131.346 53.2892C131.542 53.5385 131.773 53.7324 132.04 53.8709C132.31 54.0081 132.613 54.0824 132.949 54.0938L133.02 55.4888C132.543 55.5002 132.087 55.4027 131.652 55.1964C131.221 54.9888 130.836 54.6828 130.497 54.2785C130.161 53.8729 129.895 53.3794 129.699 52.798Z" fill="#7D7D7D"/>
<path d="M142.096 67.7817L132.699 65.546L132.528 64.1407L141.119 59.7246L141.301 61.2236L134.435 64.575L134.446 64.6687L141.914 66.2827L142.096 67.7817Z" fill="#7D7D7D"/>
<path d="M132.652 77.4697C132.724 76.5998 132.979 75.8655 133.416 75.2668C133.857 74.6723 134.438 74.2337 135.16 73.9508C135.886 73.6723 136.711 73.5717 137.636 73.6492C138.56 73.7266 139.361 73.9634 140.039 74.3594C140.719 74.7597 141.232 75.2801 141.577 75.9207C141.925 76.5654 142.066 77.2953 141.997 78.1104C141.958 78.5806 141.841 79.0384 141.645 79.4837C141.45 79.929 141.161 80.325 140.777 80.6717C140.396 81.0186 139.909 81.2797 139.314 81.4548C138.719 81.6299 138.001 81.6822 137.158 81.6116L136.57 81.5624L137.153 74.6031L138.352 74.7036L137.888 80.2522C138.397 80.2948 138.86 80.231 139.277 80.0607C139.693 79.8943 140.033 79.6347 140.295 79.2818C140.557 78.9328 140.709 78.5076 140.751 78.006C140.797 77.4535 140.7 76.964 140.46 76.5374C140.223 76.115 139.896 75.7779 139.479 75.526C139.062 75.274 138.605 75.1272 138.107 75.0855L137.308 75.0186C136.626 74.9615 136.038 75.0306 135.544 75.226C135.054 75.4257 134.668 75.7268 134.386 76.1293C134.107 76.5321 133.945 77.0137 133.898 77.5741C133.867 77.9385 133.89 78.2719 133.968 78.5743C134.049 78.881 134.184 79.1508 134.373 79.3837C134.567 79.6169 134.816 79.8055 135.119 79.9493L134.631 81.2579C134.188 81.0788 133.808 80.8082 133.491 80.4463C133.178 80.0846 132.946 79.6509 132.795 79.145C132.648 78.6394 132.6 78.081 132.652 77.4697Z" fill="#7D7D7D"/>
<path d="M131.427 86.4941L140.166 88.8826L139.812 90.1798L138.492 89.8191L138.467 89.9101C138.856 90.1876 139.128 90.5718 139.283 91.0626C139.438 91.5535 139.444 92.0606 139.301 92.5841C139.274 92.6827 139.239 92.8054 139.195 92.9523C139.15 93.0992 139.114 93.2096 139.086 93.2834L137.72 92.9101C137.744 92.8677 137.79 92.7681 137.857 92.6112C137.927 92.4592 137.986 92.294 138.035 92.1157C138.151 91.6909 138.166 91.2872 138.079 90.9047C137.994 90.527 137.823 90.1989 137.565 89.9205C137.31 89.6469 136.985 89.4561 136.59 89.3483L131.06 87.8368L131.427 86.4941Z" fill="#7D7D7D"/>
<path d="M125.082 95.0101C125.184 94.7972 125.292 94.6157 125.407 94.4658C125.518 94.3142 125.605 94.2141 125.668 94.1654L126.623 95.0127C126.399 95.2808 126.242 95.537 126.152 95.7814C126.062 96.0259 126.067 96.2834 126.169 96.5541C126.266 96.8267 126.485 97.1383 126.828 97.4889L127.355 98.0277L137.018 98.9219L136.368 100.285L128.775 99.4361L128.734 99.5213L134.175 104.885L133.525 106.248L125.809 98.3101C125.461 97.9526 125.204 97.5925 125.037 97.2298C124.866 96.8654 124.787 96.4984 124.797 96.1289C124.806 95.7628 124.901 95.3899 125.082 95.0101Z" fill="#7D7D7D"/>
<path d="M124.376 114.082L123.33 113.315L126.458 109.054L127.504 109.822L124.376 114.082Z" fill="#7D7D7D"/>
<path d="M113.311 117.152C113.869 116.644 114.49 116.336 115.174 116.229C115.861 116.125 116.561 116.222 117.274 116.52C117.989 116.82 118.669 117.325 119.315 118.035C119.956 118.738 120.391 119.459 120.621 120.196C120.851 120.933 120.879 121.639 120.706 122.313C120.532 122.987 120.163 123.58 119.599 124.094C119.163 124.491 118.752 124.732 118.367 124.817C117.982 124.908 117.638 124.922 117.338 124.861C117.037 124.805 116.796 124.753 116.615 124.706L116.527 124.785L119.529 128.082L118.5 129.019L110.367 120.088L111.362 119.182L112.299 120.211L112.421 120.1C112.386 119.909 112.353 119.657 112.323 119.344C112.296 119.034 112.345 118.688 112.472 118.307C112.601 117.929 112.88 117.544 113.311 117.152ZM114.013 118.204C113.6 118.58 113.349 119.005 113.26 119.48C113.174 119.957 113.231 120.455 113.432 120.974C113.636 121.496 113.968 122.01 114.429 122.516C114.884 123.016 115.355 123.387 115.842 123.63C116.332 123.876 116.814 123.973 117.29 123.923C117.768 123.876 118.217 123.662 118.635 123.281C119.071 122.883 119.333 122.441 119.42 121.952C119.507 121.469 119.449 120.971 119.248 120.458C119.046 119.95 118.731 119.46 118.302 118.989C117.868 118.513 117.401 118.146 116.9 117.888C116.4 117.637 115.901 117.527 115.404 117.559C114.907 117.597 114.443 117.812 114.013 118.204Z" fill="#7D7D7D"/>
<path d="M103.147 124.775C103.645 124.488 104.15 124.321 104.663 124.274C105.178 124.231 105.659 124.319 106.104 124.539C106.55 124.762 106.921 125.129 107.216 125.639C107.476 126.089 107.598 126.504 107.582 126.886C107.569 127.271 107.46 127.629 107.256 127.96C107.052 128.291 106.794 128.599 106.482 128.884C106.168 129.174 105.843 129.448 105.506 129.707C105.065 130.043 104.705 130.313 104.427 130.514C104.147 130.722 103.961 130.904 103.87 131.061C103.776 131.22 103.785 131.396 103.897 131.59L103.921 131.631C104.212 132.135 104.576 132.447 105.013 132.567C105.447 132.688 105.941 132.589 106.496 132.268C107.072 131.936 107.45 131.549 107.631 131.108C107.812 130.668 107.887 130.266 107.854 129.903L109.234 129.651C109.306 130.245 109.248 130.774 109.061 131.236C108.872 131.704 108.606 132.107 108.262 132.447C107.916 132.792 107.546 133.079 107.151 133.307C106.899 133.453 106.592 133.589 106.229 133.717C105.866 133.85 105.478 133.913 105.065 133.906C104.649 133.901 104.232 133.772 103.813 133.519C103.394 133.266 103.005 132.828 102.645 132.205L99.6583 127.037L100.864 126.34L101.477 127.402L101.539 127.367C101.522 127.15 101.553 126.889 101.632 126.584C101.71 126.28 101.868 125.968 102.106 125.649C102.344 125.33 102.691 125.039 103.147 124.775ZM103.589 125.964C103.113 126.24 102.765 126.565 102.546 126.941C102.324 127.32 102.215 127.705 102.22 128.097C102.221 128.492 102.315 128.853 102.504 129.18L103.142 130.283C103.157 130.192 103.237 130.071 103.381 129.919C103.524 129.773 103.697 129.617 103.9 129.449C104.102 129.288 104.3 129.132 104.496 128.983C104.689 128.839 104.846 128.721 104.966 128.629C105.255 128.408 105.51 128.172 105.729 127.923C105.947 127.679 106.087 127.418 106.15 127.141C106.211 126.87 106.153 126.581 105.976 126.275C105.734 125.856 105.396 125.629 104.962 125.593C104.527 125.563 104.069 125.687 103.589 125.964Z" fill="#7D7D7D"/>
<path d="M94.5054 135.177L92.8193 129.994L94.1431 129.563L96.9459 138.179L95.6671 138.595L95.2291 137.249L95.117 137.285C95.0574 137.788 94.8651 138.24 94.5401 138.639C94.2164 139.042 93.7292 139.349 93.0786 139.561C92.4953 139.751 91.9459 139.797 91.4306 139.7C90.9164 139.607 90.4594 139.359 90.0594 138.955C89.6606 138.556 89.342 137.99 89.1036 137.257L87.3226 131.782L88.6463 131.352L90.3981 136.736C90.6183 137.413 90.9655 137.883 91.4399 138.147C91.9155 138.414 92.4599 138.447 93.0731 138.248C93.4957 138.11 93.8436 137.896 94.1167 137.604C94.3862 137.314 94.5591 136.962 94.6354 136.549C94.7118 136.135 94.6685 135.678 94.5054 135.177Z" fill="#7D7D7D"/>
<path d="M77.7557 129.812C78.4248 129.745 79.0086 129.774 79.5071 129.897C80.0052 130.017 80.4286 130.2 80.7772 130.446C81.1216 130.688 81.4034 130.956 81.6226 131.25L80.5968 132.136C80.4552 131.984 80.2779 131.812 80.065 131.62C79.8517 131.424 79.5709 131.264 79.2227 131.141C78.8701 131.014 78.4219 130.978 77.8781 131.033C77.1503 131.106 76.5674 131.342 76.1292 131.742C75.6911 132.141 75.5097 132.717 75.585 133.468L75.7685 135.299L75.8859 135.287C75.9711 135.113 76.0955 134.895 76.259 134.633C76.419 134.376 76.6636 134.136 76.993 133.914C77.3189 133.695 77.7753 133.557 78.3622 133.498C79.09 133.425 79.7606 133.532 80.3742 133.818C80.9838 134.104 81.4899 134.56 81.8922 135.183C82.2907 135.807 82.5369 136.589 82.6311 137.528C82.7236 138.451 82.6418 139.271 82.3857 139.989C82.1299 140.71 81.7314 141.287 81.1899 141.721C80.6489 142.158 79.9989 142.415 79.2398 142.491C78.6529 142.55 78.1775 142.499 77.8136 142.338C77.4462 142.181 77.1582 141.989 76.9496 141.761C76.7375 141.537 76.5727 141.352 76.4553 141.205L76.3144 141.22L76.4579 142.652L75.1198 142.786L74.1905 133.513C74.1128 132.738 74.2258 132.09 74.5293 131.57C74.8285 131.046 75.2621 130.641 75.8302 130.355C76.394 130.065 77.0358 129.884 77.7557 129.812ZM78.2991 134.761C77.7435 134.816 77.2867 134.991 76.9288 135.283C76.5708 135.576 76.316 135.971 76.1643 136.469C76.0126 136.966 75.9701 137.547 76.0367 138.212C76.1018 138.862 76.2571 139.425 76.5025 139.902C76.748 140.38 77.0765 140.74 77.4882 140.983C77.8998 141.227 78.3874 141.32 78.9508 141.264C79.5377 141.205 80.0119 141.007 80.3733 140.67C80.7309 140.334 80.9824 139.906 81.1278 139.386C81.2693 138.866 81.3095 138.3 81.2483 137.69C81.1856 137.064 81.0323 136.52 80.7884 136.059C80.5411 135.601 80.21 135.255 79.7952 135.02C79.3769 134.789 78.8782 134.703 78.2991 134.761Z" fill="#7D7D7D"/>
</svg>
